# xmcd
#
# Track frame offsets:
#	150
#	13881
#	31048
#	44958
#	57475
#	70746
#	87325
#	103572
#	115379
#	125733
#	138767
#	152238
#
# Disc length: 2308
#
# Revision: 2
# Processed by: cddbd v1.5.1PL0 Copyright (c) Steve Scherf et al.
# Submitted via: AltoMP3_Maker 3.0
# Normalized: r1:TRMNUM
#
DISCID=aa09020c
DTITLE=Barry White - The Love Album
DYEAR=1900
DGENRE=
TTITLE0=I´ve Got The Whole World To Hold Me Up
TTITLE1=Your Heart And Soul
TTITLE2=Under The Influence Of Love
TTITLE3=All In The Run Of Love
TTITLE4=Out Of The Shadows Of Love
TTITLE5=Long Black Veil
TTITLE6=Come On In Love
TTITLE7=Where Can I Turn To
TTITLE8=I Owe It All To You
TTITLE9=Fragile - Handle With Care
TTITLE10=My Buddy
TTITLE11=I´ve Got The Whole World To Hold Me Up (Big Man Remix)
EXTD=
EXTT0=
EXTT1=
EXTT2=
EXTT3=
EXTT4=
EXTT5=
EXTT6=
EXTT7=
EXTT8=
EXTT9=
EXTT10=
EXTT11=
PLAYORDER=
